<?xml version="1.0" standalone="no"?>
<!DOCTYPE svg PUBLIC "-//W3C//DTD SVG 20010904//EN"
 "http://www.w3.org/TR/2001/REC-SVG-20010904/DTD/svg10.dtd">
<svg version="1.0" xmlns="http://www.w3.org/2000/svg"
 width="500.000000pt" height="500.000000pt" viewBox="0 0 500.000000 500.000000"
 preserveAspectRatio="xMidYMid meet">

<g transform="translate(0.000000,500.000000) scale(0.100000,-0.100000)"
fill="#000000" stroke="none">
<path d="M1210 4174 c-47 -7 -132 -13 -190 -13 -58 -1 -135 -8 -172 -16 -74
-15 -223 -88 -278 -134 -33 -28 -33 -30 -12 -31 13 0 56 5 95 10 40 6 89 13
110 15 l38 5 -4 -922 c-4 -798 -6 -936 -21 -1018 -37 -217 -89 -366 -177 -512
-51 -84 -172 -212 -243 -257 -72 -45 -44 -38 52 14 109 58 210 136 303 232
125 129 144 170 174 385 37 265 73 846 55 892 -14 38 -13 101 4 140 8 18 17
82 21 142 3 60 11 145 16 189 8 71 13 83 43 115 19 19 40 48 45 63 6 16 11 97
11 180 0 84 3 209 7 279 l6 127 61 31 c83 42 174 100 156 98 -8 0 -53 -6 -100
-14z"/>
<path d="M1708 4028 c15 -15 16 -174 1 -184 -8 -4 -8 -9 0 -17 16 -16 14 -134
-1 -140 -29 -10 4 -19 50 -12 l49 6 -10 62 c-6 40 -6 67 1 78 6 9 7 21 1 30
-16 25 -11 156 7 173 14 15 10 16 -47 16 -49 0 -60 -3 -51 -12z"/>
<path d="M1866 4008 c-7 -34 9 -64 19 -35 3 9 7 24 10 32 5 16 50 21 59 6 9
-14 -15 -161 -26 -161 -5 0 -6 -9 -3 -21 11 -34 -4 -129 -21 -129 -8 0 -14 -4
-14 -9 0 -10 58 -21 109 -21 32 0 33 1 17 13 -16 12 -18 22 -12 70 4 31 11 59
16 62 5 3 7 18 4 33 -7 33 12 142 26 156 17 17 62 -11 58 -36 -5 -38 20 -32
28 7 3 20 4 38 2 40 -6 6 -181 25 -229 25 -33 0 -37 -3 -43 -32z"/>
<path d="M1450 4020 c-26 -5 -31 -8 -19 -14 22 -10 46 -160 29 -181 -8 -10 -8
-14 1 -17 16 -5 30 -119 16 -136 -5 -7 -8 -14 -6 -16 4 -4 186 21 207 29 6 2
12 19 12 37 l0 33 -23 -28 c-25 -31 -83 -52 -94 -34 -4 7 -8 39 -9 72 -2 33
-7 71 -12 85 -17 46 -24 150 -11 166 9 12 6 14 -22 13 -19 -1 -50 -5 -69 -9z"/>
<path d="M1308 3987 c-30 -12 -37 -27 -13 -27 17 0 72 -166 81 -246 5 -39 3
-54 -11 -67 -9 -9 -20 -17 -25 -17 -18 0 -42 48 -75 154 -36 112 -43 156 -25
156 6 0 10 6 10 13 0 11 -14 9 -62 -6 -76 -25 -75 -24 -56 -40 20 -15 52 -129
45 -157 -3 -11 -1 -20 4 -20 6 0 19 -20 30 -45 11 -24 26 -51 35 -60 22 -22
96 -20 125 4 22 17 24 28 24 98 1 44 -5 87 -11 98 -7 11 -20 47 -29 79 -14 46
-15 64 -6 78 13 21 2 22 -41 5z"/>
<path d="M2266 3955 c-49 -17 -71 -38 -97 -91 -11 -24 -24 -44 -27 -44 -4 0
-8 -25 -9 -57 -4 -101 38 -156 119 -156 42 0 51 7 132 104 19 24 30 142 16
183 -19 59 -71 83 -134 61z m78 -28 c19 -29 -46 -249 -85 -288 -26 -26 -38
-24 -50 8 -18 49 29 215 78 274 27 32 40 33 57 6z"/>
<path d="M2914 3430 l-129 -101 -53 -117 c-29 -64 -56 -123 -59 -129 -4 -10
36 -13 180 -13 l184 0 5 228 c3 125 5 228 3 230 -1 1 -60 -43 -131 -98z"/>
<path d="M1168 3424 c-96 -106 -86 -81 -104 -281 l-6 -73 186 0 c102 0 186 2
186 5 0 3 -36 78 -81 167 -62 124 -82 174 -87 219 l-7 59 -87 -96z"/>
<path d="M1064 2993 l-51 -4 8 -42 c4 -23 6 -68 5 -99 l-3 -58 46 2 c40 1 41
2 11 5 -35 4 -35 4 -32 48 4 42 6 45 32 45 16 0 32 5 35 10 4 6 -8 10 -29 10
-34 0 -36 2 -36 35 0 34 1 35 40 35 22 0 40 5 40 10 0 6 -3 9 -7 8 -5 -1 -31
-3 -59 -5z"/>
<path d="M1190 2990 c-10 -6 -11 -10 -2 -10 15 0 17 -142 2 -171 -10 -18 -7
-19 37 -19 26 0 55 5 63 10 11 7 3 10 -28 10 l-43 0 3 95 c3 95 -1 105 -32 85z"/>
<path d="M1450 2998 c0 -2 -2 -49 -3 -106 -2 -90 0 -102 15 -102 9 0 20 5 23
10 3 6 1 10 -6 10 -15 0 -6 157 10 173 15 15 61 -19 61 -46 0 -13 -5 -28 -12
-35 -9 -9 -9 -12 0 -12 32 0 43 83 13 100 -17 8 -100 15 -101 8z"/>
<path d="M1683 2985 c-38 -16 -73 -68 -73 -107 0 -39 45 -88 81 -88 68 0 119
49 119 115 0 70 -63 109 -127 80z m74 -29 c55 -47 28 -146 -40 -146 -47 0 -77
34 -77 87 0 77 60 108 117 59z"/>
<path d="M1910 2991 l-35 -6 0 -98 0 -97 40 0 c22 0 47 5 55 10 12 8 10 10
-10 9 -55 -4 -60 -1 -60 40 0 21 3 59 6 85 6 44 8 46 38 46 73 -1 111 -85 65
-144 -14 -18 -16 -24 -5 -20 24 9 48 54 48 91 0 63 -58 97 -142 84z"/>
<path d="M2165 2991 l-50 -6 0 -98 0 -97 45 2 c38 1 40 2 12 5 -29 4 -33 7
-28 26 3 12 6 32 6 45 0 17 6 22 24 22 14 0 28 5 31 10 4 6 -7 10 -24 10 -29
0 -31 3 -31 35 0 33 2 35 34 35 19 0 38 5 41 10 3 6 3 9 -2 8 -4 -1 -30 -4
-58 -7z"/>
<path d="M2280 2990 c-11 -7 -12 -10 -2 -10 11 0 13 -20 10 -95 -3 -84 -1 -95
14 -95 9 0 20 5 23 10 3 6 1 10 -4 10 -7 0 -11 23 -11 54 0 78 10 116 29 116
43 0 56 -59 19 -84 l-23 -16 47 -46 c30 -31 52 -45 62 -41 12 5 5 16 -31 50
l-46 44 21 21 c28 28 28 57 0 76 -25 18 -85 21 -108 6z"/>
<path d="M2630 2993 l-35 -4 3 -99 3 -100 36 0 c69 0 143 58 143 113 0 38 -29
76 -68 86 -20 6 -39 10 -42 9 -3 -1 -21 -3 -40 -5z m95 -38 c53 -52 17 -146
-57 -148 -21 0 -39 1 -40 4 -2 2 -2 41 0 87 l4 82 34 0 c24 0 43 -8 59 -25z"/>
<path d="M2885 2993 l-50 -4 3 -99 3 -100 47 2 c40 1 42 2 12 5 -35 4 -35 4
-32 48 3 38 7 45 26 45 11 0 28 5 36 10 11 7 5 10 -22 10 -37 0 -38 1 -38 35
0 33 2 35 34 35 19 0 38 5 41 10 3 6 3 9 -2 8 -4 -1 -30 -3 -58 -5z"/>
<path d="M3173 2989 c-46 -13 -83 -62 -83 -109 0 -30 6 -43 31 -64 32 -27 81
-34 109 -16 11 7 5 10 -25 10 -69 1 -106 52 -84 117 13 41 38 55 92 51 24 -1
41 2 40 7 -3 14 -41 16 -80 4z"/>
<path d="M3310 2990 c-11 -7 -12 -10 -2 -10 11 0 13 -20 10 -95 -3 -84 -1 -95
14 -95 9 0 20 5 23 10 3 6 1 10 -4 10 -7 0 -11 23 -11 54 0 78 10 116 29 116
43 0 56 -59 19 -84 l-23 -16 47 -46 c30 -31 52 -45 62 -41 12 5 5 16 -31 50
l-46 44 21 21 c28 28 28 57 0 76 -25 18 -85 21 -108 6z"/>
<path d="M3585 2991 l-50 -6 0 -98 0 -97 45 2 c38 1 40 2 12 5 -29 4 -33 7
-28 26 3 12 6 32 6 45 0 17 6 22 24 22 14 0 28 5 31 10 4 6 -7 10 -24 10 -29
0 -31 3 -31 35 0 33 2 35 34 35 19 0 38 5 41 10 3 6 3 9 -2 8 -4 -1 -30 -4
-58 -7z"/>
<path d="M3910 2990 c-12 -8 -12 -10 -1 -10 11 0 13 -18 8 -95 -6 -98 -2 -107
33 -85 10 6 11 10 3 10 -10 0 -13 24 -13 85 0 82 1 85 23 85 50 0 66 -60 22
-82 l-25 -14 49 -48 c32 -32 55 -47 65 -43 12 5 5 16 -32 51 l-47 45 23 23
c27 30 28 42 2 68 -22 22 -83 27 -110 10z"/>
<path d="M3748 2943 c-11 -27 -31 -72 -43 -100 -19 -41 -21 -53 -10 -53 8 0
12 6 10 13 -8 21 29 57 60 60 27 2 31 -2 39 -35 6 -25 15 -38 26 -38 24 0 32
11 16 24 -7 6 -24 48 -36 94 -13 45 -28 82 -32 82 -5 0 -18 -21 -30 -47z m32
-32 c8 -29 7 -31 -17 -31 -20 0 -24 4 -18 18 4 9 10 25 12 35 7 22 11 18 23
-22z"/>
<path d="M1036 2558 c-22 -488 -74 -846 -141 -965 l-25 -46 69 7 c101 9 189
40 275 96 42 27 76 51 76 52 0 2 -43 2 -96 0 -53 -2 -107 -1 -118 2 l-22 5 28
112 c47 186 98 618 98 825 l0 64 -68 0 -69 0 -7 -152z"/>
<path d="M1320 2705 c0 -3 84 -161 187 -353 103 -191 212 -397 243 -459 62
-122 110 -255 110 -303 0 -18 4 -30 10 -28 5 2 56 55 112 119 99 112 105 121
156 246 69 169 145 306 300 537 70 104 135 202 145 218 l19 28 -65 0 -65 0
-63 -102 c-52 -86 -396 -626 -404 -636 -2 -2 -85 158 -185 355 -100 197 -186
363 -192 370 -8 10 -52 13 -159 13 -82 0 -149 -2 -149 -5z"/>
<path d="M2800 2648 c0 -35 9 -252 21 -483 11 -231 17 -440 14 -465 -4 -25
-17 -69 -31 -99 l-24 -54 68 6 c149 14 349 82 448 152 31 21 34 26 14 20 -39
-11 -185 -18 -223 -11 l-34 6 13 38 c8 21 13 81 14 142 0 135 -19 712 -26 768
l-5 42 -125 0 -124 0 0 -62z"/>
<path d="M3381 2219 c-12 -13 -21 -26 -21 -30 0 -4 -27 -12 -61 -18 -114 -20
-162 -60 -146 -123 7 -26 52 -57 64 -44 5 4 -4 17 -20 28 -33 24 -34 48 -4 76
22 21 131 51 143 39 3 -3 -8 -51 -25 -108 -34 -112 -38 -156 -17 -184 21 -29
73 -22 112 16 32 31 32 31 36 8 4 -33 43 -37 73 -9 l22 21 29 -29 c59 -59 152
-46 201 27 30 44 29 86 -3 164 l-26 63 31 31 c17 17 31 36 31 42 0 12 -28 41
-41 41 -18 0 -49 -41 -49 -65 0 -20 -5 -25 -25 -25 -35 0 -79 24 -104 56 -11
14 -26 24 -33 21 -7 -2 -33 -60 -58 -128 -25 -68 -58 -144 -75 -169 -34 -51
-75 -71 -100 -50 -21 18 -17 50 26 185 29 93 34 102 68 120 23 13 36 27 36 40
0 29 -38 31 -64 4z m39 -8 c0 -5 -7 -12 -16 -15 -14 -5 -15 -4 -4 9 14 17 20
19 20 6z m350 -25 c0 -16 -28 -42 -36 -33 -3 3 -3 15 1 26 7 23 35 29 35 7z
m-147 -55 c16 -6 41 -11 57 -11 25 0 32 -7 49 -46 37 -82 43 -119 27 -157 -18
-45 -52 -67 -101 -67 -63 1 -100 42 -89 99 7 33 46 71 72 71 20 0 52 -29 52
-47 0 -7 5 -13 10 -13 17 0 11 39 -10 60 -22 22 -70 26 -101 9 -11 -6 -33 -38
-48 -72 -29 -65 -53 -93 -71 -82 -5 3 -10 15 -10 27 0 18 49 173 79 252 l12
29 22 -21 c12 -11 35 -25 50 -31z"/>
<path d="M4118 2226 c-7 -8 -21 -23 -30 -35 -10 -11 -27 -21 -38 -21 -38 0
-101 -32 -111 -56 -16 -43 30 -108 63 -88 7 4 1 12 -16 21 -28 15 -36 53 -13
70 18 15 87 36 94 29 4 -3 -2 -32 -11 -64 -55 -173 -93 -232 -151 -232 -37 0
-65 28 -65 66 0 31 36 71 70 79 35 8 40 25 7 25 -24 0 -64 -23 -84 -50 -7 -8
-13 -34 -13 -57 0 -34 5 -46 31 -67 35 -30 47 -31 94 -12 49 21 85 84 125 215
33 108 50 137 50 86 0 -52 69 -90 124 -69 31 12 16 22 -29 21 -47 -2 -59 5
-69 40 -9 29 33 73 69 73 33 0 146 -31 143 -40 -2 -3 -23 -63 -47 -133 -51
-148 -72 -177 -129 -177 -44 0 -61 14 -64 53 -3 39 21 75 59 88 34 11 45 29
18 29 -29 0 -75 -30 -90 -60 -23 -45 -19 -78 15 -112 27 -27 36 -30 72 -25 63
8 84 38 139 193 34 99 56 146 75 162 31 27 25 41 -11 22 -20 -11 -33 -10 -83
4 -32 9 -77 16 -100 16 -23 0 -42 5 -42 10 0 15 -37 12 -52 -4z m32 -15 c0 -5
-7 -12 -16 -15 -14 -5 -15 -4 -4 9 14 17 20 19 20 6z"/>
<path d="M4541 2192 c-25 -26 -68 -71 -94 -99 -28 -30 -61 -54 -78 -58 -30 -7
-41 -25 -14 -25 8 0 24 -9 36 -21 18 -18 20 -30 17 -115 -3 -90 -2 -97 21
-115 12 -10 28 -16 33 -13 6 4 1 14 -12 24 -22 16 -23 22 -17 96 4 55 2 90 -8
117 l-13 39 41 42 c59 60 157 168 157 172 0 16 -30 -4 -69 -44z"/>
</g>
</svg>
